<svg width="60" height="60" fill="none" xmlns="http://www.w3.org/2000/svg"><path d="M1.757 30.193l-.204-.098a2.577 2.577 0 01-1.045-1.104C.156 28.346 0 27.74 0 27.116l.049-.323c0-.498.127-.947.352-1.376l.205-.371c.097-.204.243-.38.37-.548.157-.176.177-.4.128-.605l-.127-.402c-.146-.498-.244-.995-.244-1.494l-.079-.302c0-.557.147-1.104.5-1.503l.252-.323c.177-.253.45-.401.752-.499.244-.079.42-.332.45-.624l.049-.85c0-.673.322-1.299.821-1.758l.606-.45a1.53 1.53 0 00.341-.45.613.613 0 00.128-.499c-.05-.244 0-.323.127-.353.401.156.654.107.83-.097l.323-.42.898-1.005a.971.971 0 00.195-1.044l-.292-.655c-.049-.146 0-.322.127-.371.323 0 .548.118.645.322l.098.177c.155.302.508.45.752.322a4.086 4.086 0 011.425-.244h.8c.548 0 .996-.38 1.105-.956.097-.693.34-1.25.693-1.622a4.312 4.312 0 011.3-1.005c.654-.34 1.055-.849 1.181-1.494.176-.8.596-1.376 1.172-1.747l1.905-1.075.547-.332a3.59 3.59 0 00.88-.752l.498-.596c.244-.253.5-.42.801-.499.244-.078.596-.127.898-.097l.996.067c.499 0 .898.128 1.3.302l.252.128c.253.097.5.049.625-.128l.225-.127L25.933.315c.253-.253.548-.353.88-.302.322.049.645.176.946.332.45.243.822.34 1.251.34h.253c.548 0 1.093.08 1.65.205l.371.098c.372.097.752-.049.996-.353a.23.23 0 01.352-.048c.08.048.098.097.128.176.049.499.352.88.752.995l.401.128c.42.127.8.401 1.045.752.253.371.556.752.898.995l.253.254c.253.253.596.352.947.322h1.473a4.4 4.4 0 011.76.353c.547.253 1.122.301 1.64.097.557-.167 1.132-.244 1.708-.167l1.074.167c.499.058.996.302 1.3.684l.127.119c.244.253.499.575.743.928.155.322.508.498.849.498h1.553c.38 0 .751.08 1.055.254.323.243.596.498.85.751l.243.323c.302.352.45.821.43 1.327 0 .402.302.743.693.743l.508.058c.353 0 .646.244.822.566l.253.508.645 1.446c.107.253.127.499.107.703 0 .244.067.45.243.548l.254.176c.322.253.498.624.45 1.056l-.177 1.171-.048.5a.805.805 0 00.302.751c.37.244.547.576.566.947v.499c0 .253-.049.556-.244.752-.156.204-.253.45-.253.751l.079.576c0 .401.243.752.498.996.353.253.548.654.606 1.055a9.93 9.93 0 01.118 1.622v.576c0 .204 0 .401.079.596a.9.9 0 00.322.46l.5.37c.507.323.858.752 1.055 1.328.253.548.322 1.123.322 1.699v.195c0 .45-.048.928-.195 1.348-.127.46-.097.88.068 1.25.204.353.332.752.38 1.182.098.499.05.996-.127 1.397l-.049.176a2.234 2.234 0 01-.575.8c-.254.254-.5.402-.646.576-.155.146-.253.401-.176.625l.068.352a2.79 2.79 0 010 1.446v.204a4.72 4.72 0 01-.401.996c-.177.322-.42.575-.743.752l-.38.243a.672.672 0 00-.302.557c0 .244-.098.499-.244.645l-.38.508c-.245.323-.567.597-.92.743a5.876 5.876 0 00-.879.752c-.253.302-.45.654-.547 1.005-.098.45-.45.694-.831.694h-1.348c-.353 0-.673.253-.822.556-.176.39-.352.674-.575.92-.253.252-.401.556-.508.897-.049.302-.293.508-.548.402a.626.626 0 00-.8.253 5.87 5.87 0 01-.92 1.202l-.175.146c-.332.253-.752.45-1.133.45-.45 0-.673.204-.742.498a4.616 4.616 0 00-.156.86 4.266 4.266 0 01-.244.82l-.127.147c-.253.38-.45.752-.703 1.074l-.098.156c-.322.42-.752.752-1.25.87a4.91 4.91 0 01-1.65.253h-.353c-.244 0-.499.146-.673.401l-.146.253-.156.293-.322.557a1.87 1.87 0 01-1.124.898 5.436 5.436 0 01-1.6.146l-.402-.049c-.353 0-.673-.097-.996-.253-.253-.097-.605 0-.752.253a1.719 1.719 0 01-.879.655l-.752.243a3.282 3.282 0 01-1.573 0l-.401-.127c-.244 0-.499-.118-.703-.244a1.35 1.35 0 00-.743-.156l-.332.059c-.498.048-.947 0-1.397-.128l-.673-.155a1.378 1.378 0 01-.752-.576 1 1 0 00-.752-.499h-.8c-.499-.067-.947-.244-1.25-.624l-.996-.947-.353-.302-.547-.401-.323-.244c-.38-.253-.83-.45-1.309-.499l-1.494-.253c-.156 0-.253-.049-.401-.079l-.576-.127c-.253-.049-.499-.244-.673-.499-.146-.244-.43-.352-.673-.244-.499.195-.898.244-1.3.323h-.352a3.688 3.688 0 01-1.856-.323c-.597-.253-.996-.624-1.367-1.104a2.023 2.023 0 00-1.309-.85l-.694-.146a4.168 4.168 0 01-1.455-.605c-.498-.353-.752-.673-.947-1.075a3.156 3.156 0 01-.352-1.25v-.195c-.049-.508-.401-.956-.87-1.075a3.654 3.654 0 01-1.376-.752 1.782 1.782 0 01-.557-1.299l.058-1.104c0-.43-.127-.8-.43-1.075-.301-.301-.498-.673-.498-1.074l-.079-.898c-.049-.654-.176-1.3-.322-1.954-.147-.575.078-1.153.547-1.425l.176-.127a.62.62 0 00.205-.801l-.205-.244c-.243-.253-.498-.43-.752-.498-.194-.059-.243-.254-.243-.381l.244-.302a.471.471 0 000-.596 1.203 1.203 0 01-.323-.703l-.049-1.748c0-.352.049-.703.146-1.044.107-.302 0-.655-.292-.8l.002.02zm24.746-3.302c.176-.176.146-.499 0-.624a2.218 2.218 0 01-.576-.674l-.253-.4a3.402 3.402 0 00-.645-.85l-.048-.049c-.254-.195-.43-.45-.576-.752a.787.787 0 010-.752l.146-.243c.156-.254.253-.606.253-.899v-.107c0-.243-.097-.498-.253-.742a2.986 2.986 0 01-.243-.703v-.146c-.08-.302 0-.625.195-.88.204-.322.352-.624.429-.995v-.058c.097-.244.049-.567-.107-.822-.146-.253-.195-.498-.098-.8l.177-.5c.146-.45.38-.848.673-1.201l.352-.371.254-.302.146-.146a.496.496 0 00.049-.606c-.128-.253-.195-.499-.147-.752l.049-.352c.079-.5.253-.996.576-1.397l.097-.098c.371-.498.85-.83 1.397-1.005l.684-.243c.293-.098.5-.43.5-.752 0-.402.127-.752.35-1.075l.118-.127c.253-.42.557-.85.752-1.3l.176-.322a.516.516 0 00.079-.253c0-.42-.253-.8-.655-.821l-1.093-.08c-.624-.048-1.25 0-1.856 0l-2.119.254c-.332 0-.575.244-.605.596a.815.815 0 01-.548.752l-.898.244-.253.079-.752.253a2.085 2.085 0 00-1.25 1.123l-.196.322a3.024 3.024 0 01-1.201 1.328c-.5.322-.752.85-.801 1.445v.254c-.049.498-.204.995-.499 1.348l-.127.204a.805.805 0 00-.128.85c.128.292.205.624.176.946v1.328a.833.833 0 01-.498.742c-.353.128-.576.401-.674.752l-.127.499c-.098.508.079 1.005.499 1.309.401.292.654.742.752 1.299v.45c.078.499.352.996.8 1.25.45.303.8.753.996 1.251l.127.401c.205.548.655.87 1.154.92h.146c.45 0 .85.252 1.104.654a1.61 1.61 0 001.093.752l.703.194c.43.128.831.353 1.154.674l.048.058a.646.646 0 00.88-.107l.176-.195-.034-.03zm2.85-2.295c.244.146.499.067.596-.156l.08-.118c.175-.352.4-.703.644-1.005l.508-.752c.068 0 .098-.049.118-.097l.606-.8c.253-.245.547-.42.898-.42a.81.81 0 00.752-.5c.098-.352.244-.684.547-.956l.128-.146c.253-.253.499-.38.752-.499.322-.049.624-.107.928-.107h.743c.301 0 .556-.118.703-.371.146-.253.37-.42.624-.547l.253-.107c.401-.167.85-.293 1.3-.342l.498-.048c.302 0 .625 0 .928.166.244.177.576.156.822-.048l.176-.098c.371-.253.8-.45 1.25-.498h.05c.498-.098.946-.098 1.454-.08h.244c.499.08.928.254 1.25.625l.08.098c.253.253.644.459.995.459h.43a.378.378 0 00.322-.176.502.502 0 01.322-.156h.254c.352 0 .673.098.995.204l.43.177c.4.118.82.244 1.25.292h.302c.195 0 .322-.118.322-.292 0-.253-.048-.508-.176-.703l-.176-.402c-.195-.322-.352-.673-.499-.995l-.048-.128a.787.787 0 010-.752v-.127a.427.427 0 00-.254-.499h-.195a2.053 2.053 0 01-1.005-.673l-.243-.253c-.254-.244-.402-.624-.508-.996-.119-.322-.39-.575-.743-.575h-1.056a1.408 1.408 0 01-.928-.548l-.097-.127a3.262 3.262 0 01-.42-.85c-.128-.253-.401-.401-.655-.322l-.302.097a3.436 3.436 0 01-1.494.195l-.401-.049c-.43 0-.83-.176-1.153-.42l-.253-.176a2.52 2.52 0 00-.625-.352c-.244-.098-.45-.049-.596.127l-.127.147c-.244.253-.597.45-.947.498l-1.349.079a.984.984 0 00-.673.302 1.453 1.453 0 01-.684.341h-.049c-.243 0-.498.176-.742.353v.048a1.274 1.274 0 01-.908.381l-.097.049c-.302 0-.596 0-.898.079h-.302c-.42.067-.752.42-.85.87l-.097.575a2.569 2.569 0 01-.499 1.074c-.253.302-.557.5-.928.5h-.42c-.253.057-.508.331-.46.624.059.429 0 .8-.067 1.18l-.097.42c-.107.382-.353.674-.685.802l-.146.078h-.049c-.146.098-.253.323-.127.499.155.253.204.499.176.752l-.079.8c0 .293-.118.576-.243.822a.771.771 0 00-.05.752l.244.547c.128.253.156.508.08.8-.08.254-.128.5-.098.753 0 .253.146.498.352.605l.092.096zm19.748 18.077c.253.243.624.341.928.146l.498-.323a1.4 1.4 0 00.548-.751v-.05l.253-.751.146-.253.107-.244.098-.176a.76.76 0 01.498-.43l.098-.048c.204-.049.332-.244.332-.45 0-.244.118-.45.244-.625l.204-.176.499-.645v-.049c.146-.204.243-.429.302-.684.048-.244 0-.499-.107-.742l-.049-.107a2.484 2.484 0 01-.176-.645l-.068-.703-.079-.752c0-.244.098-.5.254-.743.166-.204.292-.46.4-.703v-.097l.05-.05c.048-.252-.08-.507-.302-.507-.253-.119-.499-.323-.576-.625l-.079-.146a5.313 5.313 0 01-.195-1.348l.05-1.25v-.08a.759.759 0 00-.753-.751h-.048c-.5 0-.899-.147-1.251-.5l-.195-.252-.508-.567-.645-.751a5.793 5.793 0 00-.83-.957c-.245-.243-.625-.498-.997-.547l-.498-.079a2.578 2.578 0 01-.85-.341c-.204-.156-.498-.107-.703.097l-.322.353-.156.097c-.176.05-.341-.048-.42-.253a1.278 1.278 0 01.049-.947v-.146c0-.176-.146-.302-.302-.253h-.401c-.45 0-.898-.049-1.318-.244l-.254-.107a1.868 1.868 0 00-.82-.195c-.254 0-.509.05-.753.195l-.097.08a2.087 2.087 0 01-1.005.322h-.821c-.381 0-.752.127-1.005.331a3.06 3.06 0 01-1.045.39l-.673.107a2.236 2.236 0 00-.907.42c-.244.254-.597.402-.92.5l-.127.057a1.786 1.786 0 00-.995.743l-.302.302a.672.672 0 000 .8c.146.253.45.323.752.253l.371-.155c.195-.068.43 0 .596.097.156.128.38.205.606.177l.624-.068c.353 0 .703 0 1.045.098.38.127.703.253 1.005.498.301.253.624.353.995.402.38.048.752.127 1.105.253l.243.048c.254.08.46.244.606.5.127.204.244.498.244.751v.079c0 .292.253.498.508.498h.146c.401 0 .83.05 1.25.177l.177.067c.253.107.499.253.673.508.205.244.323.5.401.743l.08.352c.067.381.097.752.097 1.154v.127c0 .244.176.499.45.596.253.049.547.156.83.302l.118.049c.332.195.655.45.898.752l.128.176c.332.371.499.85.499 1.318v.176c0 .381-.068.752-.195 1.105-.098.302 0 .654.322.752l.177.127c.38.146.703.42.946.743.253.38.353.8.353 1.25v.752c-.049.253-.118.45-.244.625a.53.53 0 000 .605l.146.244.042-.028zM33.103 29.87h-.049c-.107 0-.155.128-.127.253l.097.5c.098.4.147.8.205 1.201.049.401.243.742.547.996h.098c.38.301.605.752.624 1.202v1.25a.87.87 0 00.156.703l.118.118c.253.302.352.655.38 1.005l.068 1.377c0 .322-.195.596-.499.645l-.243.048c-.177 0-.254.205-.254.381 0 .195.08.42.147.624v.05c.078.243.106.498.078.751l-.097.673a4.731 4.731 0 01-.499 1.397l-.176.302a1.087 1.087 0 01-.508.499.866.866 0 00-.499.547l-.195.898a5.504 5.504 0 01-.654 1.504h-.05a3.515 3.515 0 01-1.122.996l-.302.204-.752.371c-.244.107-.401.332-.45.606l-.118.821c-.079.499-.253.928-.606 1.25l-.322.381-.38.372-.372.4c-.302.353-.752.5-1.25.43l-.899-.176-.83-.107h-.226c-.097.107-.118.253-.048.401.176.302.45.508.752.508l.547.098c.253 0 .557.128.8.244.254.176.5.302.801.38h.05c.331.128.672.147 1.004.128l.371-.058c.43-.049.831 0 1.172.155l.302.098c.128.049.323 0 .45-.128.156-.146.302-.243.499-.322l.204-.049a3.4 3.4 0 01.996-.155h.204c.293 0 .576.058.822.204l.097.049c.176.078.38 0 .508-.147.068-.176.244-.352.42-.498l.624-.43.402-.253.204-.118c.244-.176.596-.253.898-.253l.898-.079a.9.9 0 00.752-.645c.098-.38.244-.752.499-1.074a7.36 7.36 0 01.752-.85c.322-.253.645-.38.995-.4h.205a.838.838 0 00.673-.85v-1.68c.049-.244.146-.576.293-.822l.508-.751.195-.254c.155-.127.253-.292.429-.498l.244-.323c.155-.253.155-.575-.049-.8-.244-.254-.371-.606-.42-.947v-.107a3.234 3.234 0 01.068-1.25v-.119c.127-.332.301-.654.508-.956a.57.57 0 00-.08-.8l-.428-.372c-.353-.302-.548-.752-.597-1.202l-.048-.499c0-.155 0-.322-.05-.498l-.048-.381c-.058-.42-.302-.752-.654-.996l-.177-.048a2.403 2.403 0 01-.703-.673c-.195-.254-.292-.606-.371-.957l-.079-.42c0-.155-.097-.253-.244-.322l-1.201-.38c-.254-.05-.5-.245-.674-.42h-.048c-.156-.205-.401-.205-.557-.059l-.244.253c-.049.079-.107.098-.176.079-.156 0-.253-.128-.205-.253.05-.401-.097-.8-.42-1.045l-.331-.253-.743-.498c-.204-.08-.508 0-.605.243l-.098.156c0 .049-.079.067-.098.097-.106 0-.253 0-.253-.127l-.078-.128c-.068-.146-.244-.243-.402-.292l-.056-.126zm-2.998 2.5l-.128-.128c-.127-.097-.253-.079-.38.049a3.55 3.55 0 00-.401.956v.049c-.068.322-.372.547-.674.499h-.292a.638.638 0 00-.624.645c0 .45-.156.907-.43 1.25l-.146.156c-.253.322-.624.547-1.005.673l-.195.049c-.253.079-.45.253-.499.547 0 .253-.155.508-.352.703l-.253.195c-.302.332-.752.509-1.202.557l-1.25.128c-.402 0-.743.243-.997.624-.253.371-.624.624-.995.673l-.557.049a3.624 3.624 0 01-1.25-.049l-.244-.048-.685-.177a.524.524 0 00-.596.176l-.253.323a1.453 1.453 0 01-1.25.499l-1.623-.195c-.253 0-.45-.128-.673-.253-.253-.147-.43-.323-.605-.5l-.625-.751c-.067-.049-.195-.079-.322-.049l-.353.146-1.397.353c-.253.079-.575 0-.82-.146-.254-.205-.558-.253-.86-.253h-.322c-.302.078-.499.4-.401.703l.097.498c.079.254.058.548-.067.801-.126.253-.098.499.067.752l.156.195c.195.302.498.557.752.8.243.254.498.5.693.831l.381.673c.195.353.499.548.898.548.371 0 .752.127 1.044.371l.752.703c.205.177.5.205.704.049l.127-.049c.146 0 .244.098.244.253v.128c0 .322.253.624.575.742l1.123.253c.402.128.801.254 1.182.5h.195c.204 0 .38-.177.352-.402v-.87c0-.253.098-.508.302-.606l.128-.048c.118.048.243.146.195.253v.42c0 .322.097.624.322.85a.799.799 0 00.85.203c.301-.127.605-.155.928-.127l.928.049c.45.048.87 0 1.25-.177a3.76 3.76 0 001.172-.624l.146-.097.752-.673c.254-.254.576-.381.88-.381h.995c.5-.049.957-.499 1.005-.996l.098-.498c0-.332.146-.625.371-.88.253-.253.499-.401.752-.499l.302-.127c.42-.176.752-.548.898-.996l.146-.605c.128-.5.38-.996.752-1.319l.049-.058c.302-.243.352-.742.155-1.093l-.078-.176c-.176-.253-.205-.624-.079-.947.127-.352.253-.654.45-.956l.253-.353c.098-.195.098-.498-.049-.673a1.147 1.147 0 01-.253-.694l-.049-.352v-.85c.05-.253 0-.575-.078-.83l-.098-.292-.011-.077zm-3.574-1.905v-.068c0-.253-.155-.401-.352-.401h-.655a1.704 1.704 0 01-.703 0h-1.123c-.576 0-1.123-.107-1.67-.253l-.606-.146-.499-.156-1.123-.371a2.114 2.114 0 01-1.328-1.123l-.127-.254c-.176-.37-.547-.575-.919-.498-.43 0-.85 0-1.25-.195l-.302-.128c-.576-.253-.996-.752-.996-1.425l-.107-.673c-.067-.352-.292-.673-.596-.8a6.51 6.51 0 01-1.005-.576l-.118-.079a2.708 2.708 0 01-.88-1.172l-.048-.146a2.357 2.357 0 01-.049-1.25l.049-.156c.097-.323.127-.645.127-.996 0-.302-.127-.606-.352-.83l-.353-.323a1.816 1.816 0 01-.673-1.328c-.049-.547-.049-1.074.049-1.6v-.147a.5.5 0 00-.499-.499h-.079c-.322 0-.596.195-.752.499-.118.352-.322.624-.547.898l-.098.128-.751.751c-.253.244-.402.625-.45.996-.05.38-.147.752-.302 1.104l-.049.128c-.127.292-.322.575-.576.752-.243.195-.42.498-.42.791l-.048 1.153c0 .499-.08 1.005-.253 1.504l-.05.195a.649.649 0 00.303.83l1.044.45.098.05c.078 0 .106.048.127.127.079.097 0 .243-.079.243l-.244.128c-.146.049-.253.204-.301.38l-.05.244v.05l-.252 1.405c-.049.195-.049.42-.049.645 0 .205.128.381.302.45l.547.253c.253.147.557.323.752.5l.253.204a.863.863 0 00.293.243l.107.098c.176.155.292.352.352.575l.244 1.124c0 .302.253.557.499.624l.401.128s.079 0 .128.048l.498.156c.401.127.752.352 1.056.645.302.253.596.575.85.928l.097.098c.204.253.499.38.8.301.302-.078.625-.097.947-.097h.38c.245 0 .576.067.85.244.244.155.576.253.87.38h.079a.937.937 0 00.88-.097c.243-.205.575-.302.898-.302l1.171.067c.253 0 .5-.048.625-.243h.049l.429-.402.127-.127c.195-.244.5-.353.792-.371h1.132c.293 0 .576-.254.694-.5a.952.952 0 01.673-.507l.508-.098c.195 0 .371-.176.45-.401.068-.244.195-.45.371-.596l.402-.401c.253-.254.38-.5.429-.801l-.049.019z" fill="#F8F5F9"/></svg>