<svg width="54" height="60" fill="none" xmlns="http://www.w3.org/2000/svg"><path d="M26.969 45.109c-.452 0-.904-.172-1.248-.517l-10.97-10.97a1.764 1.764 0 112.496-2.495l7.957 7.957V1.764a1.765 1.765 0 113.53 0v37.188l7.967-7.836a1.765 1.765 0 012.485 2.506l-10.97 10.97a1.76 1.76 0 01-1.247.517z" fill="#350324"/><path d="M27 60C12.65 60 .975 48.325.975 33.975c0-11.359 7.262-21.32 18.069-24.786a1.766 1.766 0 011.078 3.361C10.781 15.546 4.505 24.157 4.505 33.975 4.505 46.38 14.596 56.471 27 56.471c12.404 0 22.495-10.092 22.495-22.496 0-9.819-6.276-18.428-15.617-21.425a1.765 1.765 0 011.077-3.36c10.808 3.466 18.07 13.426 18.07 24.785C53.025 48.325 41.35 60 27 60z" fill="#350324"/></svg>