<svg width="60" height="60" fill="none" xmlns="http://www.w3.org/2000/svg"><path d="M55.976 15.316c-2.683-4.712-6.322-8.442-10.918-11.192C40.461 1.374 35.443 0 30 0S19.537 1.375 14.94 4.124c-4.596 2.75-8.235 6.48-10.918 11.192C1.341 20.028 0 25.173 0 30.751c0 6.701 1.907 12.727 5.723 18.079 3.815 5.352 8.743 9.056 14.784 11.111.703.134 1.224.04 1.563-.28.338-.32.507-.72.507-1.2 0-.08-.006-.801-.02-2.163-.013-1.361-.02-2.55-.02-3.563l-.897.16c-.573.107-1.296.152-2.169.14a16.127 16.127 0 01-2.714-.28c-.938-.173-1.81-.574-2.618-1.201-.806-.627-1.38-1.449-1.718-2.462l-.39-.922c-.26-.613-.67-1.295-1.23-2.042-.56-.747-1.127-1.254-1.7-1.521l-.273-.2a2.896 2.896 0 01-.508-.482 2.203 2.203 0 01-.351-.56c-.079-.187-.014-.34.195-.461.208-.12.585-.18 1.133-.18l.78.12c.521.107 1.166.427 1.934.961a6.4 6.4 0 011.895 2.082c.599 1.094 1.32 1.929 2.167 2.503.847.574 1.7.86 2.559.86.859 0 1.601-.067 2.226-.2a7.642 7.642 0 001.758-.6c.234-1.79.872-3.164 1.914-4.125-1.484-.16-2.819-.4-4.004-.72-1.184-.322-2.409-.842-3.671-1.563-1.264-.72-2.312-1.615-3.145-2.683-.833-1.067-1.517-2.47-2.05-4.204-.534-1.735-.801-3.737-.801-6.006 0-3.23 1.029-5.98 3.086-8.25-.964-2.428-.873-5.15.273-8.167.755-.24 1.875-.06 3.36.54 1.484.601 2.57 1.116 3.261 1.542.69.427 1.244.788 1.66 1.081a27.102 27.102 0 017.5-1.04c2.578 0 5.079.346 7.501 1.04l1.484-.96c1.015-.641 2.214-1.229 3.593-1.763 1.38-.533 2.436-.68 3.166-.44 1.171 3.017 1.275 5.74.311 8.168 2.057 2.27 3.087 5.02 3.087 8.25 0 2.268-.268 4.276-.801 6.025-.534 1.75-1.223 3.15-2.07 4.205-.846 1.054-1.901 1.942-3.164 2.662-1.263.721-2.488 1.241-3.672 1.562-1.185.32-2.52.562-4.004.722 1.354 1.2 2.03 3.096 2.03 5.685v8.448c0 .48.164.88.49 1.201.325.32.839.414 1.542.28 6.043-2.055 10.97-5.759 14.786-11.111C58.092 43.477 60 37.45 60 30.75c-.001-5.578-1.343-10.722-4.024-15.434z" fill="#FFFEFE"/></svg>