<svg width="50" height="50" fill="none" xmlns="http://www.w3.org/2000/svg"><path d="M25 .903C11.7.903.915 11.692.915 25 .916 38.308 11.7 49.098 25 49.098c13.302 0 24.085-10.79 24.085-24.098S38.3.903 24.999.903zM15.005 11.77c1.638 0 2.967 1.212 2.967 2.708 0 1.496-1.329 2.709-2.967 2.709-1.64 0-2.967-1.213-2.967-2.709s1.328-2.708 2.967-2.708zm2.99 23.164h-5.863V19.63h5.863v15.306zm19.92 0h-5.89V26.52c0-.961-.179-1.641-.534-2.04-.355-.398-.855-.598-1.497-.598-.711 0-1.288.269-1.73.807-.441.538-.661 1.504-.661 2.897v7.35H21.74V19.63h5.46v2.493c.816-1.018 1.642-1.746 2.477-2.183.835-.437 1.853-.656 3.053-.656 1.624 0 2.893.483 3.81 1.449.917.965 1.376 2.457 1.376 4.475v9.728z" fill="#F8F5F9"/></svg>