<svg width="60" height="60" viewBox="0 0 60 60" fill="none" xmlns="http://www.w3.org/2000/svg">
<path d="M1.75688 30.1928L1.5525 30.0953C1.1025 29.8422 0.751875 29.4709 0.508125 28.9909C0.155625 28.3459 0 27.7403 0 27.1159L0.04875 26.7934C0.04875 26.2947 0.17625 25.8465 0.40125 25.4172L0.605625 25.0459C0.703125 24.8415 0.849375 24.6653 0.976875 24.4984C1.1325 24.3222 1.15313 24.0972 1.10438 23.8928L0.976875 23.4915C0.830625 22.9928 0.733125 22.4959 0.733125 21.9972L0.654375 21.6953C0.654375 21.1384 0.800625 20.5909 1.15313 20.1915L1.40625 19.869C1.5825 19.6159 1.85625 19.4678 2.15813 19.3703C2.40188 19.2915 2.57813 19.0384 2.60813 18.7459L2.65688 17.8965C2.65688 17.2234 2.97938 16.5972 3.47813 16.1378L4.08375 15.6878C4.20188 15.5697 4.3275 15.444 4.425 15.2378C4.5525 15.0915 4.58063 14.8853 4.5525 14.739C4.50375 14.4953 4.5525 14.4165 4.68 14.3865C5.08125 14.5422 5.33438 14.4934 5.51063 14.289L5.83313 13.869L6.73125 12.864C6.98438 12.6203 7.08375 12.1609 6.92625 11.8197L6.63375 11.1653C6.585 11.019 6.63375 10.8428 6.76125 10.794C7.08375 10.794 7.30875 10.9122 7.40625 11.1165L7.50375 11.2928C7.65938 11.5947 8.01188 11.7428 8.25563 11.6153C8.80313 11.4203 9.26063 11.3715 9.68063 11.3715H10.4813C11.0288 11.3715 11.4769 10.9909 11.5856 10.4153C11.6831 9.72155 11.9269 9.16467 12.2794 8.79342C12.66 8.36405 13.08 8.04155 13.5788 7.78842C14.2331 7.44717 14.6344 6.93905 14.76 6.29405C14.9363 5.49342 15.3563 4.9178 15.9319 4.54655L17.8369 3.47217L18.3844 3.1403C18.7069 2.9453 19.0088 2.6903 19.2638 2.38842L19.7625 1.79217C20.0063 1.53905 20.2612 1.37217 20.5631 1.29342C20.8069 1.21467 21.1594 1.16592 21.4613 1.19592L22.4569 1.26342C22.9556 1.26342 23.355 1.39092 23.7563 1.5653L24.0094 1.6928C24.2625 1.7903 24.5081 1.74155 24.6338 1.5653L24.8588 1.4378L25.9331 0.314671C26.1862 0.0615465 26.4806 -0.0378285 26.8125 0.0127965C27.135 0.0615465 27.4575 0.189046 27.7594 0.344671C28.2094 0.588421 28.5806 0.685921 29.01 0.685921H29.2631C29.8106 0.685921 30.3563 0.764672 30.9131 0.890297L31.2844 0.987796C31.6556 1.0853 32.0363 0.939046 32.28 0.635296C32.3588 0.507796 32.5331 0.489047 32.6325 0.586547C32.7112 0.635297 32.73 0.684047 32.76 0.762797C32.8088 1.26155 33.1125 1.64217 33.5119 1.75842L33.9131 1.88592C34.3331 2.01342 34.7138 2.28717 34.9575 2.6378C35.2106 3.00905 35.5144 3.38967 35.8556 3.63342L36.1087 3.88655C36.3619 4.13967 36.705 4.23905 37.0556 4.20905H38.5294C39.135 4.20905 39.7106 4.31592 40.2881 4.56155C40.8356 4.81467 41.4113 4.86342 41.9288 4.65905C42.4856 4.49217 43.0613 4.4153 43.6369 4.49217L44.7113 4.65905C45.21 4.71717 45.7069 4.96092 46.0106 5.34342L46.1381 5.46155C46.3819 5.71467 46.6369 6.03717 46.8806 6.38967C47.0363 6.71217 47.3888 6.88842 47.73 6.88842H49.2825C49.6631 6.88842 50.0344 6.96717 50.3381 7.14155C50.6606 7.3853 50.9344 7.6403 51.1875 7.89342L51.4313 8.21592C51.7331 8.56842 51.8813 9.03717 51.8606 9.54342C51.8606 9.94467 52.1625 10.2859 52.5544 10.2859L53.0625 10.344C53.415 10.344 53.7075 10.5878 53.8838 10.9103L54.1369 11.4184L54.7819 12.864C54.8888 13.1172 54.9094 13.3628 54.8888 13.5672C54.8888 13.8109 54.9563 14.0172 55.1325 14.1147L55.3856 14.2909C55.7081 14.544 55.8844 14.9153 55.8356 15.3465L55.6594 16.5184L55.6106 17.0172C55.5619 17.2703 55.6781 17.5928 55.9125 17.769C56.2838 18.0128 56.46 18.3447 56.4788 18.7159V19.2147C56.4788 19.4678 56.43 19.7715 56.235 19.9665C56.0794 20.1709 55.9819 20.4165 55.9819 20.7184L56.0606 21.294C56.0606 21.6953 56.3044 22.0459 56.5594 22.2897C56.9119 22.5428 57.1069 22.944 57.165 23.3453C57.2625 23.9697 57.2831 24.4684 57.2831 24.9672V25.5428C57.2831 25.7472 57.2831 25.944 57.3619 26.139C57.4106 26.3153 57.5381 26.4915 57.6844 26.5984L58.1831 26.9697C58.6913 27.2922 59.0419 27.7215 59.2388 28.2972C59.4919 28.8447 59.5613 29.4203 59.5613 29.9959V30.1909C59.5613 30.6409 59.5125 31.119 59.3663 31.539C59.2388 31.9984 59.2688 32.4184 59.4338 32.7897C59.6381 33.1422 59.7656 33.5415 59.8144 33.9709C59.9119 34.4697 59.8631 34.9665 59.6869 35.3678L59.6381 35.544C59.5106 35.8459 59.3156 36.1197 59.0625 36.3447C58.8094 36.5978 58.5638 36.7459 58.4175 36.9203C58.2619 37.0665 58.1644 37.3215 58.2413 37.5447L58.3088 37.8972C58.4363 38.3959 58.4363 38.8928 58.3088 39.3428V39.5472C58.2113 39.9184 58.065 40.2409 57.9075 40.5428C57.7313 40.8653 57.4875 41.1184 57.165 41.2947L56.7844 41.5384C56.6081 41.6453 56.4825 41.8703 56.4825 42.0953C56.4825 42.339 56.385 42.594 56.2388 42.7403L55.8581 43.2484C55.6144 43.5709 55.2919 43.8447 54.9394 43.9909C54.5869 44.244 54.285 44.499 54.06 44.7428C53.8069 45.0447 53.61 45.3972 53.5125 45.7478C53.415 46.1978 53.0625 46.4415 52.6819 46.4415H51.3338C50.9813 46.4415 50.6606 46.6947 50.5125 46.9984C50.3363 47.3884 50.16 47.6715 49.9369 47.9172C49.6838 48.1703 49.5356 48.474 49.4288 48.8153C49.38 49.1172 49.1363 49.3234 48.8813 49.2165C48.5588 49.0703 48.2363 49.2165 48.0806 49.4697C47.7881 49.9684 47.4844 50.349 47.1619 50.6715L46.9856 50.8178C46.6538 51.0709 46.2338 51.2678 45.8531 51.2678C45.4031 51.2678 45.18 51.4722 45.1106 51.7665C45.0319 52.0197 44.9831 52.3422 44.955 52.6253C44.9063 52.9178 44.8088 53.1915 44.7113 53.4465L44.5838 53.5928C44.3306 53.9734 44.1338 54.3447 43.8806 54.6672L43.7831 54.8228C43.4606 55.2428 43.0313 55.5747 42.5325 55.6928C41.9269 55.8972 41.4094 55.9459 40.8825 55.9459H40.53C40.2863 55.9459 40.0313 56.0922 39.8569 56.3472L39.7106 56.6003L39.555 56.8928L39.2325 57.4497C38.9794 57.8997 38.6081 58.1922 38.1094 58.3478C37.6106 58.4753 37.035 58.524 36.5081 58.494L36.1069 58.4453C35.7544 58.4453 35.4338 58.3478 35.1113 58.1922C34.8581 58.0947 34.5056 58.1922 34.3594 58.4453C34.1062 58.7978 33.8025 58.9928 33.48 59.0997L32.7281 59.3434C32.2294 59.4709 31.6838 59.4709 31.155 59.3434L30.7538 59.2159C30.51 59.2159 30.255 59.0978 30.0506 58.9722C29.8069 58.8447 29.5519 58.7959 29.3081 58.8165L28.9763 58.8747C28.4775 58.9234 28.0294 58.8747 27.5794 58.7472L26.9062 58.5915C26.6044 58.494 26.3306 58.299 26.1544 58.0159C26.0269 57.7722 25.7531 57.5659 25.4025 57.5172H24.6019C24.1031 57.4497 23.655 57.2734 23.3512 56.8928L22.3556 55.9459L22.0031 55.644L21.4556 55.2428L21.1331 54.999C20.7525 54.7459 20.3025 54.549 19.8244 54.5003L18.33 54.2472C18.1744 54.2472 18.0769 54.1984 17.9287 54.1684L17.3531 54.0409C17.1 53.9922 16.8544 53.7972 16.68 53.5422C16.5338 53.2984 16.2506 53.1897 16.0069 53.2984C15.5081 53.4934 15.1088 53.5422 14.7075 53.6209H14.355C13.7006 53.6697 13.1044 53.5722 12.4988 53.2984C11.9025 53.0453 11.5031 52.674 11.1319 52.194C10.83 51.7647 10.38 51.4422 9.82312 51.3447L9.12938 51.1984C8.63063 51.0915 8.12438 50.8965 7.67438 50.5928C7.17563 50.2403 6.9225 49.9197 6.7275 49.5184C6.5325 49.1472 6.405 48.7178 6.375 48.2678V48.0728C6.32625 47.5647 5.97375 47.1165 5.505 46.9984C4.92938 46.8222 4.5 46.569 4.12875 46.2465C3.77625 45.9147 3.57188 45.4459 3.57188 44.9472L3.63 43.8428C3.63 43.4134 3.5025 43.0422 3.20063 42.7684C2.89875 42.4665 2.70188 42.0953 2.70188 41.694L2.62313 40.7959C2.57438 40.1415 2.44688 39.4965 2.30063 38.8422C2.15438 38.2665 2.37938 37.689 2.84813 37.4172L3.02438 37.2897C3.2775 37.1134 3.37688 36.7909 3.22875 36.489L3.02438 36.2453C2.78063 35.9922 2.52563 35.8159 2.2725 35.7465C2.0775 35.6884 2.02875 35.4934 2.02875 35.3659L2.2725 35.064C2.42813 34.8878 2.4 34.614 2.2725 34.4678C2.0775 34.2634 1.98 34.0178 1.95 33.7647L1.90125 32.0172C1.90125 31.6647 1.95 31.314 2.0475 30.9728C2.15438 30.6709 2.0475 30.3184 1.755 30.1722L1.75688 30.1928ZM26.5031 26.8909C26.6794 26.7147 26.6494 26.3922 26.5031 26.2665C26.25 26.0715 26.0737 25.8465 25.9275 25.5934L25.6744 25.1922C25.5075 24.8697 25.2844 24.5959 25.0294 24.3428L24.9806 24.294C24.7275 24.099 24.5513 23.844 24.405 23.5422C24.2775 23.2984 24.2775 23.0434 24.405 22.7903L24.5513 22.5465C24.7069 22.2934 24.8044 21.9409 24.8044 21.6484V21.5415C24.8044 21.2978 24.7069 21.0428 24.5513 20.799C24.4538 20.5947 24.3563 20.349 24.3075 20.0959V19.9497C24.2288 19.6478 24.3075 19.3253 24.5025 19.0703C24.7069 18.7478 24.855 18.4459 24.9319 18.0747V18.0165C25.0294 17.7728 24.9806 17.4503 24.825 17.1953C24.6788 16.9422 24.63 16.6965 24.7275 16.3947L24.9038 15.8959C25.05 15.4459 25.2844 15.0465 25.5769 14.694L25.9294 14.3228L26.1825 14.0209L26.3288 13.8747C26.475 13.719 26.505 13.4734 26.3775 13.269C26.25 13.0159 26.1825 12.7703 26.2313 12.5172L26.28 12.1647C26.3588 11.6659 26.5331 11.169 26.8556 10.7678L26.9531 10.6703C27.3244 10.1715 27.8025 9.83967 28.35 9.6653L29.0344 9.42155C29.3269 9.32405 29.5331 8.99217 29.5331 8.66967C29.5331 8.26842 29.6606 7.9178 29.8838 7.5953L30.0019 7.4678C30.255 7.0478 30.5588 6.61842 30.7538 6.16842L30.93 5.84592C30.9788 5.76717 31.0088 5.66967 31.0088 5.5928C31.0088 5.1728 30.7556 4.79217 30.3544 4.77155L29.2613 4.6928C28.6369 4.64405 28.0106 4.6928 27.405 4.6928L25.2862 4.94592C24.9544 4.94592 24.7106 5.18967 24.6806 5.54217C24.6806 5.89467 24.4275 6.19655 24.1331 6.29405L23.235 6.5378L22.9819 6.61655L22.23 6.86967C21.6825 7.04592 21.2344 7.4453 20.9794 7.9928L20.7844 8.3153C20.5312 8.87217 20.1113 9.3203 19.5825 9.6428C19.0838 9.9653 18.8306 10.4922 18.7819 11.0884V11.3415C18.7331 11.8403 18.5775 12.3372 18.2831 12.6897L18.1556 12.894C17.9513 13.1378 17.9025 13.4697 18.0281 13.7434C18.1556 14.0359 18.2325 14.3678 18.2044 14.6903V16.0178C18.2044 16.3703 17.9513 16.6628 17.7056 16.7603C17.3531 16.8878 17.13 17.1615 17.0325 17.5122L16.905 18.0109C16.8075 18.519 16.9837 19.0159 17.4037 19.3197C17.805 19.6122 18.0581 20.0622 18.1556 20.619V21.069C18.2344 21.5678 18.5081 22.0647 18.9563 22.3197C19.4063 22.6215 19.7569 23.0715 19.9519 23.5703L20.0794 23.9715C20.2838 24.519 20.7338 24.8415 21.2325 24.8903H21.3787C21.8287 24.8903 22.2281 25.1434 22.4831 25.5447C22.7269 25.9459 23.1281 26.2178 23.5763 26.2965L24.2794 26.4915C24.7088 26.619 25.11 26.844 25.4325 27.1647L25.4813 27.2228C25.7344 27.4178 26.1356 27.3897 26.3606 27.1159L26.5369 26.9209L26.5031 26.8909ZM29.3531 24.5959C29.5969 24.7422 29.8519 24.6634 29.9494 24.4403L30.0281 24.3222C30.2044 23.9697 30.4294 23.619 30.6731 23.3172L31.1812 22.5653C31.2487 22.5653 31.2788 22.5165 31.2994 22.4678L31.905 21.6672C32.1581 21.4234 32.4525 21.2472 32.8031 21.2472C33.1256 21.2472 33.4088 21.0709 33.555 20.7484C33.6525 20.3959 33.7988 20.064 34.1025 19.7922L34.23 19.6459C34.4831 19.3928 34.7288 19.2653 34.9819 19.1472C35.3044 19.0984 35.6063 19.0403 35.91 19.0403H36.6525C36.9544 19.0403 37.2094 18.9222 37.3556 18.669C37.5019 18.4159 37.7269 18.249 37.98 18.1215L38.2331 18.0147C38.6344 17.8478 39.0825 17.7222 39.5325 17.6734L40.0313 17.6247C40.3331 17.6247 40.6556 17.6247 40.9594 17.7915C41.2031 17.9678 41.535 17.9472 41.7806 17.7428L41.9569 17.6453C42.3281 17.3922 42.7575 17.1953 43.2075 17.1465H43.2563C43.755 17.049 44.2031 17.049 44.7113 17.0678H44.955C45.4538 17.1465 45.8831 17.3209 46.2056 17.6922L46.2844 17.7897C46.5375 18.0428 46.9294 18.249 47.28 18.249H47.7094C47.8369 18.249 47.9531 18.1909 48.0319 18.0728C48.1106 17.994 48.2363 17.9172 48.3544 17.9172H48.6075C48.96 17.9172 49.2806 18.0147 49.6031 18.1215L50.0325 18.2978C50.4338 18.4159 50.8538 18.5415 51.2831 18.5903H51.585C51.78 18.5903 51.9075 18.4722 51.9075 18.2978C51.9075 18.0447 51.8588 17.7897 51.7313 17.5947L51.555 17.1934C51.36 16.8709 51.2025 16.5203 51.0563 16.1978L51.0075 16.0703C50.88 15.8172 50.88 15.5715 51.0075 15.3184V15.1909C51.0563 14.9959 50.9588 14.7709 50.7544 14.6922H50.5594C50.1581 14.5647 49.8075 14.3397 49.5544 14.019L49.3106 13.7659C49.0575 13.5222 48.9094 13.1415 48.8025 12.7703C48.6844 12.4478 48.4125 12.1947 48.06 12.1947H47.0044C46.6331 12.1459 46.3013 11.9415 46.0763 11.6472L45.9788 11.5197C45.8025 11.2665 45.6563 10.9722 45.5588 10.6703C45.4313 10.4172 45.1575 10.269 44.9044 10.3478L44.6025 10.4453C44.1038 10.6215 43.6069 10.689 43.1081 10.6403L42.7069 10.5915C42.2775 10.5915 41.8762 10.4153 41.5537 10.1715L41.3006 9.9953C41.1056 9.83967 40.9106 9.74217 40.6763 9.6428C40.4325 9.5453 40.2263 9.59405 40.08 9.7703L39.9525 9.91655C39.7087 10.1697 39.3563 10.3665 39.0056 10.4153L37.6575 10.494C37.4044 10.494 37.1588 10.6215 36.9844 10.7959C36.78 10.9722 36.555 11.0884 36.3 11.1372H36.2513C36.0075 11.1372 35.7525 11.3134 35.5088 11.4897V11.5384C35.2556 11.7915 34.9331 11.919 34.6013 11.919L34.5038 11.9678C34.2019 11.9678 33.9075 11.9678 33.6056 12.0465H33.3037C32.8837 12.114 32.5519 12.4665 32.4544 12.9165L32.3569 13.4922C32.2781 13.8934 32.1038 14.244 31.8581 14.5665C31.605 14.8684 31.3013 15.0653 30.93 15.0653H30.51C30.2569 15.1234 30.0019 15.3972 30.0506 15.6897C30.1088 16.119 30.0506 16.4903 29.9831 16.8709L29.8856 17.2909C29.7788 17.6715 29.5331 17.964 29.2013 18.0915L29.055 18.1703H29.0063C28.86 18.2678 28.7531 18.4928 28.8788 18.669C29.0344 18.9222 29.0831 19.1678 29.055 19.4209L28.9763 20.2215C28.9763 20.514 28.8581 20.7972 28.7325 21.0428C28.5769 21.2959 28.5769 21.5415 28.6838 21.7947L28.9275 22.3422C29.055 22.5953 29.0831 22.8503 29.0063 23.1428C28.9275 23.3959 28.8788 23.6415 28.9088 23.8947C28.9088 24.1478 29.055 24.3934 29.2613 24.5003L29.3531 24.5959ZM49.1006 42.6728C49.3538 42.9165 49.725 43.014 50.0288 42.819L50.5275 42.4965C50.7806 42.3203 50.9775 42.0672 51.075 41.7447V41.6959L51.3281 40.944L51.4744 40.6909L51.5813 40.4472L51.6788 40.2709C51.7763 40.0665 51.9225 39.9184 52.1775 39.8415L52.275 39.7928C52.4794 39.744 52.6069 39.549 52.6069 39.3428C52.6069 39.099 52.725 38.8928 52.8506 38.7184L53.055 38.5422L53.5538 37.8972V37.8484C53.7 37.644 53.7975 37.419 53.8556 37.164C53.9044 36.9203 53.8556 36.6653 53.7488 36.4215L53.7 36.3147C53.6025 36.0709 53.5538 35.8947 53.5238 35.6697L53.4563 34.9665L53.3775 34.2147C53.3775 33.9709 53.475 33.7159 53.6306 33.4722C53.7975 33.2678 53.9231 33.0128 54.0319 32.769V32.6715L54.0806 32.6228C54.1294 32.3697 54.0019 32.1147 53.7788 32.1147C53.5256 31.9965 53.28 31.7922 53.2031 31.4903L53.1244 31.344C53.0063 30.894 52.9294 30.4459 52.9294 29.9959L52.9781 28.7453V28.6665C52.9781 28.2465 52.6256 27.9147 52.2263 27.9147H52.1775C51.6788 27.9147 51.2794 27.7684 50.9269 27.4159L50.7319 27.1628L50.2238 26.5965L49.5788 25.8447C49.3256 25.4922 49.08 25.1903 48.7481 24.8884C48.5044 24.6447 48.1238 24.3897 47.7525 24.3409L47.2538 24.2622C47.0006 24.2134 46.6781 24.0953 46.4044 23.9209C46.2 23.7653 45.9056 23.814 45.7013 24.0184L45.3788 24.3709L45.2231 24.4684C45.0469 24.5172 44.8819 24.4197 44.8031 24.2153C44.7056 23.9228 44.7056 23.5703 44.8519 23.2684V23.1222C44.8519 22.9459 44.7056 22.8203 44.55 22.869H44.1488C43.6988 22.869 43.2506 22.8203 42.8306 22.6253L42.5775 22.5184C42.3244 22.3909 42.03 22.3234 41.7563 22.3234C41.5031 22.3234 41.2481 22.3722 41.0044 22.5184L40.9069 22.5972C40.605 22.7922 40.2525 22.899 39.9019 22.9197H39.0806C38.7 22.9197 38.3288 23.0472 38.0756 23.2515C37.7531 23.4465 37.4025 23.574 37.0313 23.6415L36.3581 23.7484C36.0562 23.8159 35.7338 23.9434 35.4506 24.1684C35.2069 24.4215 34.8544 24.5697 34.5319 24.6672L34.4044 24.7253C34.0031 24.8434 33.6525 25.0965 33.4087 25.4678L33.1069 25.7697C32.9306 26.0228 32.9306 26.3172 33.1069 26.5703C33.2531 26.8234 33.5569 26.8928 33.8587 26.8234L34.23 26.6678C34.425 26.6003 34.6594 26.6678 34.8263 26.7653C34.9819 26.8928 35.2069 26.9697 35.4319 26.9415L36.0563 26.874C36.4088 26.874 36.7594 26.874 37.1006 26.9715C37.4812 27.099 37.8038 27.2247 38.1056 27.4703C38.4075 27.7234 38.73 27.8228 39.1013 27.8715C39.4819 27.9203 39.8531 27.999 40.2056 28.1247L40.4494 28.1734C40.7025 28.2522 40.9088 28.4172 41.055 28.6722C41.1825 28.8765 41.2988 29.1709 41.2988 29.424V29.5028C41.2988 29.7953 41.5519 30.0015 41.8069 30.0015H41.9531C42.3544 30.0015 42.7838 30.0503 43.2038 30.1778L43.38 30.2453C43.6331 30.3522 43.8788 30.4984 44.0531 30.7534C44.2575 30.9972 44.3756 31.2522 44.4544 31.4959L44.5331 31.8484C44.6006 32.229 44.6306 32.6003 44.6306 33.0015V33.129C44.6306 33.3728 44.8069 33.6278 45.0806 33.7253C45.3338 33.774 45.6281 33.8809 45.9113 34.0272L46.0294 34.0759C46.3613 34.2709 46.6838 34.5259 46.9275 34.8278L47.055 35.004C47.3869 35.3753 47.5538 35.8534 47.5538 36.3222V36.4984C47.5538 36.879 47.4863 37.2503 47.3588 37.6028C47.2613 37.9047 47.3588 38.2572 47.6813 38.3547L47.8575 38.4822C48.2381 38.6284 48.5606 38.9022 48.8044 39.2247C49.0575 39.6053 49.1569 40.0253 49.1569 40.4753V41.2272C49.1081 41.4803 49.0388 41.6772 48.9131 41.8515C48.7875 42.0259 48.7856 42.2809 48.9131 42.4572L49.0594 42.7009L49.1006 42.6728ZM33.1031 29.8703H33.0544C32.9475 29.8703 32.8988 29.9978 32.9269 30.1234L33.0244 30.6222C33.1219 31.0234 33.1706 31.4228 33.2288 31.824C33.2775 32.2253 33.4725 32.5665 33.7763 32.8197H33.8738C34.2544 33.1215 34.4794 33.5715 34.4981 34.0215V35.2722C34.4494 35.5159 34.4981 35.7709 34.6538 35.9753L34.7719 36.0934C35.025 36.3953 35.1244 36.7478 35.1525 37.0984L35.22 38.4747C35.22 38.7972 35.025 39.0709 34.7213 39.1197L34.4775 39.1684C34.3013 39.1684 34.2244 39.3728 34.2244 39.549C34.2244 39.744 34.3031 39.969 34.3706 40.1734V40.2222C34.4494 40.4659 34.4775 40.7209 34.4494 40.974L34.3519 41.6472C34.2544 42.1459 34.0988 42.594 33.8531 43.044L33.6769 43.3459C33.5494 43.5897 33.375 43.7472 33.1688 43.8447C32.925 43.9422 32.7488 44.1465 32.67 44.3922L32.475 45.2903C32.3475 45.7984 32.1225 46.2953 31.8206 46.794H31.7719C31.47 47.1953 31.0988 47.5459 30.6488 47.7897L30.3469 47.994L29.595 48.3653C29.3513 48.4722 29.1938 48.6972 29.145 48.9709L29.0269 49.7922C28.9481 50.2909 28.7738 50.7203 28.4213 51.0428L28.0987 51.4234L27.7181 51.7947L27.3469 52.1959C27.045 52.5484 26.595 52.6947 26.0963 52.6253L25.1981 52.449L24.3675 52.3422H24.1425C24.045 52.449 24.0244 52.5953 24.0938 52.7434C24.27 53.0453 24.5437 53.2515 24.8456 53.2515L25.3931 53.349C25.6463 53.349 25.95 53.4765 26.1938 53.5928C26.4469 53.769 26.6925 53.8947 26.9944 53.9734H27.0431C27.375 54.1009 27.7163 54.1197 28.0481 54.1009L28.4194 54.0428C28.8488 53.994 29.25 54.0428 29.5913 54.1984L29.8931 54.2959C30.0206 54.3447 30.2156 54.2959 30.3431 54.1684C30.4987 54.0222 30.645 53.9247 30.8419 53.8459L31.0462 53.7972C31.3687 53.6997 31.6912 53.6415 32.0419 53.6415H32.2463C32.5388 53.6415 32.8219 53.6997 33.0675 53.8459L33.165 53.8947C33.3413 53.9734 33.5456 53.8947 33.6731 53.7484C33.7406 53.5722 33.9169 53.3959 34.0931 53.2497L34.7175 52.8203L35.1188 52.5672L35.3231 52.449C35.5669 52.2728 35.9194 52.1959 36.2212 52.1959L37.1194 52.1172C37.4719 52.0684 37.7738 51.8247 37.8713 51.4722C37.9688 51.0915 38.115 50.7203 38.37 50.3978C38.6231 50.0659 38.8688 49.7922 39.1219 49.5484C39.4444 49.2953 39.7669 49.1678 40.1175 49.1472H40.3219C40.7231 49.0684 41.0156 48.6972 40.995 48.2978V46.6178C41.0438 46.374 41.1413 46.0422 41.2875 45.7965L41.7956 45.0447L41.9906 44.7915C42.1463 44.664 42.2438 44.499 42.42 44.2928L42.6638 43.9703C42.8194 43.7172 42.8194 43.3947 42.615 43.1697C42.3713 42.9165 42.2438 42.564 42.195 42.2228V42.1159C42.1463 41.7147 42.1463 41.2947 42.2625 40.8653V40.7472C42.39 40.4153 42.5644 40.0928 42.7706 39.7909C42.9656 39.5472 42.9375 39.1947 42.6919 38.9903L42.2625 38.619C41.91 38.3172 41.715 37.8672 41.6663 37.4172L41.6175 36.9184C41.6175 36.7628 41.6175 36.5959 41.5688 36.4197L41.52 36.039C41.4619 35.619 41.2181 35.2872 40.8656 35.0434L40.6894 34.9947C40.4363 34.839 40.1906 34.614 39.9863 34.3215C39.7913 34.0684 39.6938 33.7159 39.615 33.3653L39.5363 32.9453C39.5363 32.7897 39.4387 32.6922 39.2925 32.6228L38.0906 32.2422C37.8375 32.1934 37.5919 31.9984 37.4175 31.8222H37.3688C37.2131 31.6178 36.9675 31.6178 36.8119 31.764L36.5681 32.0172C36.5194 32.0959 36.4613 32.1147 36.3919 32.0959C36.2363 32.0959 36.1387 31.9684 36.1875 31.8428C36.2363 31.4415 36.09 31.0422 35.7675 30.7984L35.4356 30.5453L34.6931 30.0465C34.4888 29.9678 34.185 30.0465 34.0875 30.2903L33.99 30.4459C33.99 30.4947 33.9113 30.5134 33.8925 30.5434C33.7856 30.5434 33.6394 30.5434 33.6394 30.4159L33.5606 30.2884C33.4931 30.1422 33.3169 30.0447 33.1594 29.9959L33.1031 29.8703ZM30.105 32.3697L29.9775 32.2422C29.85 32.1447 29.7244 32.1634 29.5969 32.2909C29.4206 32.5928 29.2744 32.9153 29.1956 33.2472V33.2959C29.1281 33.6184 28.8244 33.8434 28.5225 33.7947H28.23C27.8775 33.7947 27.6056 34.0965 27.6056 34.4397C27.6056 34.8897 27.45 35.3472 27.1763 35.6903L27.03 35.8459C26.7769 36.1684 26.4056 36.3934 26.025 36.519L25.83 36.5678C25.5769 36.6465 25.38 36.8209 25.3313 37.1153C25.3313 37.3684 25.1756 37.6234 24.9788 37.8184L24.7256 38.0134C24.4238 38.3453 23.9738 38.5215 23.5238 38.5703L22.2731 38.6978C21.8719 38.6978 21.5306 38.9415 21.2775 39.3222C21.0244 39.6934 20.6531 39.9465 20.2819 39.9953L19.725 40.044C19.3238 40.0928 18.9037 40.0928 18.4744 39.9953L18.2306 39.9465L17.5463 39.7703C17.3025 39.6915 17.0963 39.7703 16.95 39.9465L16.6969 40.269C16.3744 40.6403 15.9056 40.8165 15.4463 40.7678L13.8244 40.5728C13.5713 40.5728 13.3744 40.4453 13.1513 40.3197C12.8981 40.1734 12.7219 39.9972 12.5456 39.8209L11.9213 39.069C11.8538 39.0203 11.7263 38.9903 11.5988 39.0203L11.2463 39.1665L9.84937 39.519C9.59625 39.5978 9.27375 39.519 9.02813 39.3728C8.775 39.1684 8.47125 39.1197 8.16938 39.1197H7.84688C7.545 39.1984 7.34813 39.5209 7.44563 39.8228L7.54313 40.3215C7.62188 40.5747 7.60125 40.869 7.47563 41.1222C7.35 41.3753 7.37813 41.6209 7.54313 41.874L7.69875 42.069C7.89375 42.3709 8.1975 42.6259 8.45063 42.8697C8.69438 43.1228 8.94937 43.3684 9.14437 43.7003L9.525 44.3734C9.72 44.7259 10.0238 44.9209 10.4231 44.9209C10.7944 44.9209 11.175 45.0484 11.4675 45.2922L12.2194 45.9953C12.4238 46.1715 12.7181 46.1997 12.9225 46.044L13.05 45.9953C13.1963 45.9953 13.2938 46.0928 13.2938 46.2484V46.3759C13.2938 46.6984 13.5469 47.0003 13.8694 47.1184L14.9925 47.3715C15.3938 47.499 15.7931 47.6247 16.1737 47.8703H16.3687C16.5731 47.8703 16.7494 47.694 16.7213 47.469V46.599C16.7213 46.3459 16.8187 46.0909 17.0231 45.9934L17.1506 45.9447C17.2688 45.9934 17.3944 46.0909 17.3456 46.1978V46.6178C17.3456 46.9403 17.4431 47.2422 17.6681 47.4672C17.9213 47.7203 18.2437 47.769 18.5175 47.6715C18.8194 47.544 19.1231 47.5159 19.4456 47.544L20.3738 47.5928C20.8238 47.6415 21.2438 47.5928 21.6244 47.4165C22.0744 47.2703 22.4456 47.064 22.7963 46.7922L22.9425 46.6947L23.6944 46.0215C23.9475 45.7684 24.27 45.6409 24.5738 45.6409H25.5694C26.0681 45.5922 26.5256 45.1422 26.5744 44.6453L26.6719 44.1465C26.6719 43.8147 26.8181 43.5222 27.0431 43.2672C27.2963 43.014 27.5419 42.8659 27.795 42.7684L28.0969 42.6409C28.5169 42.4647 28.8488 42.0934 28.995 41.6453L29.1413 41.0397C29.2688 40.5409 29.5219 40.044 29.8931 39.7215L29.9419 39.6634C30.2438 39.4197 30.2944 38.9209 30.0975 38.5703L30.0188 38.394C29.8425 38.1409 29.8144 37.7697 29.94 37.4472C30.0675 37.0947 30.1931 36.7928 30.39 36.4909L30.6431 36.1384C30.7406 35.9434 30.7406 35.6397 30.5944 35.4653C30.4388 35.2703 30.3413 35.0153 30.3413 34.7715L30.2925 34.419V33.5697C30.3413 33.3165 30.2925 32.994 30.2138 32.739L30.1163 32.4465L30.105 32.3697ZM26.5313 30.4647V30.3972C26.5313 30.144 26.3756 29.9959 26.1788 29.9959H25.5244C25.2806 30.0447 25.0256 30.0447 24.8213 29.9959H23.6981C23.1225 29.9959 22.575 29.889 22.0275 29.7428L21.4219 29.5965L20.9231 29.4409L19.8 29.0697C19.1944 28.8934 18.7444 28.494 18.4725 27.9465L18.345 27.6934C18.1687 27.3222 17.7975 27.1178 17.4263 27.1947C16.9969 27.1947 16.5769 27.1947 16.1756 26.9997L15.8738 26.8722C15.2981 26.619 14.8781 26.1203 14.8781 25.4472L14.7713 24.774C14.7038 24.4215 14.4788 24.1009 14.175 23.9734C13.8225 23.8178 13.5019 23.6209 13.17 23.3978L13.0519 23.319C12.6713 23.0172 12.3488 22.6253 12.1725 22.1472L12.1238 22.0009C11.9963 21.5997 11.9775 21.1703 12.075 20.7503L12.1238 20.5947C12.2213 20.2722 12.2513 19.9497 12.2513 19.599C12.2513 19.2972 12.1238 18.9934 11.8988 18.7684L11.5463 18.4459C11.145 18.1234 10.9013 17.6453 10.8731 17.1184C10.8244 16.5709 10.8244 16.044 10.9219 15.5172V15.3709C10.9219 15.069 10.6688 14.8722 10.4231 14.8722H10.3444C10.0219 14.8722 9.74813 15.0672 9.5925 15.3709C9.47438 15.7234 9.27 15.9953 9.045 16.269L8.9475 16.3965L8.19563 17.1484C7.9425 17.3922 7.79438 17.7728 7.74563 18.144C7.69688 18.5247 7.59937 18.8959 7.44375 19.2484L7.395 19.3759C7.2675 19.6684 7.0725 19.9515 6.81938 20.1278C6.57563 20.3228 6.39938 20.6265 6.39938 20.919L6.35063 22.0722C6.35063 22.5709 6.27188 23.0772 6.0975 23.5759L6.04875 23.7709C5.92125 24.1028 6.04875 24.444 6.35063 24.6015L7.395 25.0515L7.4925 25.1003C7.57125 25.1003 7.59938 25.149 7.62 25.2278C7.69875 25.3253 7.62 25.4715 7.54125 25.4715L7.2975 25.599C7.15125 25.6478 7.04438 25.8034 6.99563 25.9797L6.94688 26.2234V26.2722L6.69375 27.6784C6.645 27.8734 6.645 28.0984 6.645 28.3234C6.645 28.5278 6.7725 28.704 6.94688 28.7734L7.49438 29.0265C7.7475 29.1728 8.05125 29.349 8.24625 29.5253L8.49938 29.7297C8.56688 29.8272 8.69438 29.9247 8.79188 29.9734L8.89875 30.0709C9.075 30.2265 9.19125 30.4234 9.25125 30.6465L9.495 31.7697C9.495 32.0715 9.74813 32.3265 9.99375 32.394L10.395 32.5215C10.395 32.5215 10.4738 32.5215 10.5225 32.5703L11.0213 32.7259C11.4225 32.8534 11.7731 33.0784 12.0769 33.3709C12.3788 33.624 12.6731 33.9465 12.9263 34.299L13.0238 34.3965C13.2281 34.6497 13.5225 34.7772 13.8244 34.6984C14.1263 34.6197 14.4488 34.6009 14.7713 34.6009H15.1519C15.3956 34.6009 15.7275 34.6684 16.0012 34.8447C16.245 35.0003 16.5769 35.0978 16.8713 35.2253H16.95C17.2519 35.3528 17.5744 35.2928 17.8294 35.1278C18.0731 34.9234 18.405 34.8259 18.7275 34.8259L19.8994 34.8934C20.1525 34.8934 20.3981 34.8447 20.5238 34.6497H20.5725L21.0019 34.2484L21.1294 34.1209C21.3244 33.8772 21.6281 33.7684 21.9206 33.7497H23.0531C23.3456 33.7497 23.6288 33.4965 23.7469 33.2509C23.8744 32.9978 24.1275 32.7915 24.42 32.7428L24.9281 32.6453C25.1231 32.6453 25.2994 32.469 25.3781 32.244C25.4456 32.0003 25.5731 31.794 25.7494 31.6478L26.1506 31.2465C26.4038 30.9934 26.5313 30.7478 26.58 30.4459L26.5313 30.4647Z" fill="#F8F5F9"/>
</svg>
