<svg width="54" height="60" viewBox="0 0 54 60" fill="none" xmlns="http://www.w3.org/2000/svg">
<path d="M26.9687 45.109C26.5174 45.109 26.0652 44.9367 25.721 44.5919L14.7514 33.6223C14.0621 32.9334 14.0621 31.8158 14.7514 31.1269C15.4407 30.4376 16.5575 30.4376 17.2468 31.1269L25.204 39.0837V1.76469C25.204 0.789958 25.994 0 26.9687 0C27.9429 0 28.7334 0.789958 28.7334 1.76469V38.9522L36.7012 31.1163C37.3932 30.4347 38.5064 30.4412 39.191 31.1319C39.8757 31.8217 39.873 32.9352 39.1864 33.6223L28.2168 44.5919C27.8722 44.9365 27.42 45.109 26.9687 45.109Z" fill="#350324"/>
<path d="M27 60C12.6499 60 0.975155 48.3254 0.975155 33.9752C0.975155 22.6163 8.23669 12.6558 19.044 9.18935C19.9705 8.89208 20.9655 9.40303 21.2637 10.3308C21.561 11.2592 21.05 12.2527 20.1222 12.5505C10.7807 15.5463 4.50453 24.1562 4.50453 33.9752C4.50453 46.3791 14.596 56.4706 27 56.4706C39.4043 56.4706 49.4955 46.3791 49.4955 33.9752C49.4955 24.1562 43.2188 15.5465 33.8778 12.5505C32.9494 12.2527 32.4385 11.2592 32.7363 10.3308C33.0332 9.40395 34.0248 8.89155 34.955 9.18935C45.7629 12.6558 53.0248 22.6163 53.0248 33.9752C53.0248 48.3254 41.3501 60 27 60Z" fill="#350324"/>
</svg>
