<svg width="60" height="60" viewBox="0 0 60 60" fill="none" xmlns="http://www.w3.org/2000/svg">
<g id="Group">
<path id="Vector" d="M55.9757 15.316C53.293 10.6043 49.6541 6.87404 45.0581 4.12437C40.4613 1.37455 35.4431 0 29.9997 0C24.5571 0 19.5372 1.37498 14.9414 4.12437C10.3449 6.8739 6.70616 10.6043 4.02348 15.316C1.34121 20.0276 0 25.1727 0 30.7511C0 37.4521 1.90721 43.4778 5.72259 48.8297C9.53756 54.1821 14.4659 57.8857 20.5073 59.941C21.2105 60.0748 21.7311 59.9807 22.0696 59.6611C22.4082 59.3411 22.5773 58.9402 22.5773 58.4603C22.5773 58.3802 22.5706 57.6598 22.5576 56.2981C22.5442 54.9365 22.5379 53.7486 22.5379 52.735L21.6395 52.8943C21.0666 53.0019 20.344 53.0475 19.4715 53.0346C18.5994 53.0221 17.6941 52.9284 16.7568 52.7542C15.819 52.5816 14.9468 52.1812 14.1395 51.5539C13.3326 50.9266 12.7597 50.1054 12.4211 49.0917L12.0305 48.1703C11.7701 47.5569 11.3602 46.8754 10.8002 46.1284C10.2402 45.3808 9.67397 44.8739 9.10112 44.607L8.82763 44.4064C8.64539 44.273 8.47628 44.1121 8.3199 43.9254C8.16366 43.7388 8.04668 43.552 7.96856 43.3649C7.8903 43.1777 7.95515 43.0241 8.1638 42.9036C8.37244 42.7831 8.7495 42.7247 9.29663 42.7247L10.0776 42.8443C10.5984 42.9513 11.2427 43.2709 12.0112 43.8051C12.7793 44.3389 13.4107 45.0328 13.9055 45.8867C14.5048 46.9814 15.2268 47.8156 16.0735 48.3896C16.9196 48.9637 17.7726 49.2502 18.6318 49.2502C19.491 49.2502 20.2331 49.1834 20.8584 49.0506C21.4829 48.9171 22.0689 48.7164 22.6161 48.4497C22.8504 46.6604 23.4885 45.2858 24.5298 44.325C23.0457 44.1651 21.7113 43.9243 20.5261 43.6041C19.3415 43.2835 18.1174 42.7632 16.8546 42.0418C15.5911 41.3214 14.543 40.4267 13.7099 39.3595C12.8767 38.2916 12.1929 36.8897 11.6594 35.155C11.1257 33.4196 10.8588 31.4177 10.8588 29.1488C10.8588 25.9182 11.8876 23.1691 13.9449 20.8999C12.9812 18.4711 13.0722 15.7484 14.2182 12.732C14.9734 12.4915 16.0934 12.672 17.5775 13.2724C19.062 13.873 20.1489 14.3876 20.8392 14.8142C21.5296 15.2407 22.0827 15.6021 22.4995 15.8952C24.9218 15.2014 27.4216 14.8545 29.9995 14.8545C32.5773 14.8545 35.0776 15.2014 37.5001 15.8952L38.9844 14.9347C39.9995 14.2938 41.1981 13.7064 42.5775 13.1725C43.9577 12.6389 45.0131 12.4919 45.7426 12.7324C46.914 15.749 47.0184 18.4716 46.0544 20.9004C48.1115 23.1695 49.1408 25.9194 49.1408 29.1492C49.1408 31.4181 48.8729 33.4263 48.34 35.1751C47.8064 36.9241 47.1167 38.3246 46.2707 39.3795C45.4237 40.4343 44.3688 41.3219 43.106 42.0422C41.8429 42.7631 40.6184 43.2834 39.4339 43.604C38.2488 43.9246 36.9144 44.1656 35.4302 44.3257C36.7839 45.5265 37.4608 47.4219 37.4608 50.0112V58.4592C37.4608 58.9391 37.6236 59.3398 37.9495 59.66C38.275 59.9796 38.789 60.0737 39.4923 59.9398C45.5345 57.8847 50.4629 54.181 54.2777 48.8286C58.0921 43.4767 60 37.451 60 30.75C59.9986 25.1723 58.6567 20.0276 55.9757 15.316Z" fill="#FFFEFE"/>
</g>
</svg>
