<svg width="50" height="50" viewBox="0 0 50 50" fill="none" xmlns="http://www.w3.org/2000/svg">
<path d="M24.9994 0.902588C11.6991 0.902588 0.916168 11.6918 0.916168 24.9997C0.916168 38.308 11.6987 49.0976 24.9994 49.0976C38.3005 49.0976 49.0838 38.308 49.0838 24.9997C49.0834 11.6918 38.3005 0.902588 24.9994 0.902588ZM15.006 11.7709C16.6442 11.7709 17.973 12.9834 17.973 14.4793C17.973 15.9751 16.6442 17.1876 15.006 17.1876C13.3669 17.1876 12.0389 15.9751 12.0389 14.4793C12.0389 12.9834 13.3669 11.7709 15.006 11.7709ZM17.9955 34.9355H12.133V19.6293H17.9955V34.9355ZM37.9165 34.9355H32.0257V26.5188C32.0257 25.558 31.8475 24.878 31.4923 24.4788C31.1367 24.0805 30.6374 23.8805 29.9948 23.8805C29.284 23.8805 28.7072 24.1497 28.2658 24.688C27.824 25.2263 27.6037 26.1918 27.6037 27.5851V34.9355H21.7408V19.6293H27.1998V22.1222C28.0156 21.1043 28.8417 20.3763 29.6771 19.9388C30.5124 19.5018 31.5298 19.2834 32.7303 19.2834C34.3536 19.2834 35.6232 19.7659 36.5406 20.7318C37.4572 21.6972 37.9161 23.1888 37.9161 25.2068V34.9355H37.9165Z" fill="#F8F5F9"/>
</svg>
