<svg width="64" height="64" viewBox="0 0 64 64" fill="none" xmlns="http://www.w3.org/2000/svg">
<path d="M33.475 36.652C32.694 37.433 31.429 37.433 30.647 36.652L29.067 35.072L22.985 41H41.087L35.007 35.121L33.475 36.652ZM44.206 23H19.891L32 35L44.206 23ZM18 24.006V41H20.061L27.589 33.595L18 24.006ZM44.061 41H46V24.128L36.532 33.595L44.061 41ZM32 0C14.327 0 0 14.327 0 32C0 49.673 14.327 64 32 64C49.673 64 64 49.673 64 32C64 14.327 49.673 0 32 0ZM48 41C48 42.104 47.104 43 46 43H18C16.896 43 16 42.104 16 41V23C16 21.896 16.896 21 18 21H46C47.104 21 48 21.896 48 23V41Z" fill="#F8F5F9"/>
</svg>
